REM DIRINDEX 1\2,1\4,1\5,1\6,1\7,1\3\8,1\3\9,1\3\10
REM DIRNAME folder01,folder02,folder03,folder04,folder05,folder06,folder07,folder08,folder09,folder10
TITLE ""
FILE "DB4500_5th_5C_22.mp3" MP3
  TRACK 01 AUDIO
    TITLE "0:"
    INDEX 01 00:00:00
  TRACK 02 AUDIO
    TITLE "8:cjc113_4167"
    INDEX 01 00:00:01
  TRACK 03 AUDIO
    TITLE "0:"
    INDEX 01 00:01:03
  TRACK 04 AUDIO
    TITLE "9:cjc113_4168"
    INDEX 01 00:01:21
  TRACK 05 AUDIO
    TITLE "0:"
    INDEX 01 00:03:19
  TRACK 06 AUDIO
    TITLE "10:cjc113_4169"
    INDEX 01 00:03:37
  TRACK 07 AUDIO
    TITLE "0:"
    INDEX 01 00:05:73
  TRACK 08 AUDIO
    TITLE "8:cjc113_4170"
    INDEX 01 00:06:35
  TRACK 09 AUDIO
    TITLE "0:"
    INDEX 01 00:07:45
  TRACK 10 AUDIO
    TITLE "9:cjc113_4171"
    INDEX 01 00:07:62
  TRACK 11 AUDIO
    TITLE "0:"
    INDEX 01 00:09:22
  TRACK 12 AUDIO
    TITLE "10:cjc113_4172"
    INDEX 01 00:09:38
  TRACK 13 AUDIO
    TITLE "0:"
    INDEX 01 00:11:42
  TRACK 14 AUDIO
    TITLE "8:cjc113_4173"
    INDEX 01 00:12:07
  TRACK 15 AUDIO
    TITLE "0:"
    INDEX 01 00:13:28
  TRACK 16 AUDIO
    TITLE "9:cjc113_4174"
    INDEX 01 00:13:45
  TRACK 17 AUDIO
    TITLE "0:"
    INDEX 01 00:15:19
  TRACK 18 AUDIO
    TITLE "10:cjc113_4175"
    INDEX 01 00:15:36
  TRACK 19 AUDIO
    TITLE "0:"
    INDEX 01 00:18:15
  TRACK 20 AUDIO
    TITLE "8:cjc113_4176"
    INDEX 01 00:18:56
  TRACK 21 AUDIO
    TITLE "0:"
    INDEX 01 00:20:00
  TRACK 22 AUDIO
    TITLE "9:cjc113_4177"
    INDEX 01 00:20:18
  TRACK 23 AUDIO
    TITLE "0:"
    INDEX 01 00:21:58
  TRACK 24 AUDIO
    TITLE "10:cjc113_4178"
    INDEX 01 00:22:01
  TRACK 25 AUDIO
    TITLE "0:"
    INDEX 01 00:24:49
  TRACK 26 AUDIO
    TITLE "10:cjc113_4179"
    INDEX 01 00:25:15
  TRACK 27 AUDIO
    TITLE "0:"
    INDEX 01 00:29:21
  TRACK 28 AUDIO
    TITLE "8:cjc113_4180"
    INDEX 01 00:29:62
  TRACK 29 AUDIO
    TITLE "0:"
    INDEX 01 00:31:10
  TRACK 30 AUDIO
    TITLE "9:cjc113_4181"
    INDEX 01 00:31:27
  TRACK 31 AUDIO
    TITLE "0:"
    INDEX 01 00:33:21
  TRACK 32 AUDIO
    TITLE "10:cjc113_4182"
    INDEX 01 00:33:36
  TRACK 33 AUDIO
    TITLE "0:"
    INDEX 01 00:36:19
  TRACK 34 AUDIO
    TITLE "8:cjc113_4183"
    INDEX 01 00:36:64
  TRACK 35 AUDIO
    TITLE "0:"
    INDEX 01 00:38:30
  TRACK 36 AUDIO
    TITLE "9:cjc113_4184"
    INDEX 01 00:38:41
  TRACK 37 AUDIO
    TITLE "0:"
    INDEX 01 00:40:03
  TRACK 38 AUDIO
    TITLE "10:cjc113_4185"
    INDEX 01 00:40:23
  TRACK 39 AUDIO
    TITLE "0:"
    INDEX 01 00:43:54
  TRACK 40 AUDIO
    TITLE "8:cjc113_4186"
    INDEX 01 00:44:22
  TRACK 41 AUDIO
    TITLE "0:"
    INDEX 01 00:45:28
  TRACK 42 AUDIO
    TITLE "9:cjc113_4187"
    INDEX 01 00:45:43
  TRACK 43 AUDIO
    TITLE "0:"
    INDEX 01 00:46:70
  TRACK 44 AUDIO
    TITLE "10:cjc113_4188"
    INDEX 01 00:47:11
  TRACK 45 AUDIO
    TITLE "0:"
    INDEX 01 00:49:37
  TRACK 46 AUDIO
    TITLE "8:cjc113_4189"
    INDEX 01 00:50:13
  TRACK 47 AUDIO
    TITLE "0:"
    INDEX 01 00:51:28
  TRACK 48 AUDIO
    TITLE "9:cjc113_4190"
    INDEX 01 00:51:44
  TRACK 49 AUDIO
    TITLE "0:"
    INDEX 01 00:53:04
  TRACK 50 AUDIO
    TITLE "10:cjc113_4191"
    INDEX 01 00:53:23
  TRACK 51 AUDIO
    TITLE "0:"
    INDEX 01 00:57:25
  TRACK 52 AUDIO
    TITLE "8:cjc113_4192"
    INDEX 01 00:57:64
  TRACK 53 AUDIO
    TITLE "0:"
    INDEX 01 00:59:10
  TRACK 54 AUDIO
    TITLE "9:cjc113_4193"
    INDEX 01 00:59:20
  TRACK 55 AUDIO
    TITLE "0:"
    INDEX 01 01:00:57
  TRACK 56 AUDIO
    TITLE "10:cjc113_4194"
    INDEX 01 01:00:66
  TRACK 57 AUDIO
    TITLE "0:"
    INDEX 01 01:04:37
  TRACK 58 AUDIO
    TITLE "8:cjc113_4195"
    INDEX 01 01:04:66
  TRACK 59 AUDIO
    TITLE "0:"
    INDEX 01 01:06:16
  TRACK 60 AUDIO
    TITLE "9:cjc113_4196"
    INDEX 01 01:06:24
  TRACK 61 AUDIO
    TITLE "0:"
    INDEX 01 01:08:13
  TRACK 62 AUDIO
    TITLE "10:cjc113_4197"
    INDEX 01 01:08:23
  TRACK 63 AUDIO
    TITLE "0:"
    INDEX 01 01:11:31
  TRACK 64 AUDIO
    TITLE "8:cjc113_4198"
    INDEX 01 01:11:60
  TRACK 65 AUDIO
    TITLE "0:"
    INDEX 01 01:13:10
  TRACK 66 AUDIO
    TITLE "9:cjc113_4199"
    INDEX 01 01:13:18
  TRACK 67 AUDIO
    TITLE "0:"
    INDEX 01 01:14:37
  TRACK 68 AUDIO
    TITLE "10:cjc113_4200"
    INDEX 01 01:14:39
  TRACK 69 AUDIO
    TITLE "0:"
    INDEX 01 01:18:58
  TRACK 70 AUDIO
    TITLE "8:cjc113_4201"
    INDEX 01 01:19:13
  TRACK 71 AUDIO
    TITLE "0:"
    INDEX 01 01:20:53
  TRACK 72 AUDIO
    TITLE "9:cjc113_4202"
    INDEX 01 01:20:61
  TRACK 73 AUDIO
    TITLE "0:"
    INDEX 01 01:22:39
  TRACK 74 AUDIO
    TITLE "10:cjc113_4203"
    INDEX 01 01:22:42
  TRACK 75 AUDIO
    TITLE "0:"
    INDEX 01 01:25:51
  TRACK 76 AUDIO
    TITLE "8:cjc113_4204"
    INDEX 01 01:26:09
  TRACK 77 AUDIO
    TITLE "0:"
    INDEX 01 01:27:10
  TRACK 78 AUDIO
    TITLE "9:cjc113_4205"
    INDEX 01 01:27:18
  TRACK 79 AUDIO
    TITLE "0:"
    INDEX 01 01:28:04
  TRACK 80 AUDIO
    TITLE "10:cjc113_4206"
    INDEX 01 01:28:12
  TRACK 81 AUDIO
    TITLE "0:"
    INDEX 01 01:30:58
